<svg xmlns="http://www.w3.org/2000/svg" version="1.1" xmlns:xlink="http://www.w3.org/1999/xlink" xmlns:svgjs="http://svgjs.dev/svgjs" width="24" height="25"><svg width="24" height="25" viewBox="0 0 24 25" fill="none" xmlns="http://www.w3.org/2000/svg">
<rect x="0.604471" y="0.348756" width="11.1146" height="15.8956" transform="matrix(0.962404 -0.271621 0.246537 0.969133 -0.063256 5.46554)" fill="white" stroke="black"></rect>
<rect width="6.73033" height="11.2638" transform="matrix(0.962404 -0.271621 0.246537 0.969133 3.2851 7.28833)" fill="black"></rect>
<rect x="0.174744" y="0.701695" width="11.2444" height="15.7285" transform="matrix(0.844989 0.534783 -0.495501 0.868607 14.0284 1.99881)" fill="white" stroke="black"></rect>
<rect width="6.80243" height="11.1523" transform="matrix(0.844989 0.534783 -0.495501 0.868607 14.5714 5.87689)" fill="black"></rect>
<path d="M12.8029 15.3545L11.1289 15.1624L12.0129 13.3147L12.2602 13.4011L11.6734 14.6313L13.1069 14.7961L12.8029 15.3545ZM14.1851 15.7031L13.8621 15.8153L12.5525 10.9662L12.8831 10.8493L14.1851 15.7031ZM15.1118 14.0504L14.8684 13.9617L15.459 12.7291L14.02 12.573L14.3218 12.0106L15.9958 12.2027L15.1118 14.0504Z" fill="white"></path>
</svg><style>@media (prefers-color-scheme: light) { :root { filter: none; } }
@media (prefers-color-scheme: dark) { :root { filter: none; } }
</style></svg>